<?xml version="1.0" encoding="UTF-8"?>
<svg width="16px" height="16px" viewBox="0 0 16 16" version="1.1" xmlns="http://www.w3.org/2000/svg" xmlns:xlink="http://www.w3.org/1999/xlink">
    <!-- Generator: Sketch 50.2 (55047) - http://www.bohemiancoding.com/sketch -->
    <title>icons/camera-slr</title>
    <desc>Created with Sketch.</desc>
    <defs>
        <path d="M8.22,0 C8.12,0 8.02,0.08 7.96,0.18 L6.08,3.8 C6.04,3.9 5.94,3.98 5.82,3.98 L3,3.98 C1.34,3.98 0,5.32 0,6.98 L0,15.8 C0,15.9 0.08,15.98 0.18,15.98 L15.8,15.98 C15.9,15.98 15.98,15.9 15.98,15.8 L15.98,4.18 C15.98,4.06 15.9,4 15.8,4 L14.18,4 C14.08,4 13.98,3.92 13.92,3.82 L12.04,0.2 C11.98,0.1 11.9,0.02 11.78,0.02 L8.16,0.02 L8.22,0 Z M3.04,6 C3.6,6 4.04,6.44 4.04,7 C4.04,7.56 3.6,8 3.04,8 C2.48,8 2.04,7.56 2.04,7 C2.04,6.44 2.48,6 3.04,6 Z M10.04,6 C12.24,6 14.04,7.8 14.04,10 C14.04,12.2 12.24,14 10.04,14 C7.84,14 6.04,12.2 6.04,10 C6.04,7.8 7.84,6 10.04,6 Z M10.04,8 C8.94,8 8.04,8.9 8.04,10 C8.04,11.1 8.94,12 10.04,12 C11.14,12 12.04,11.1 12.04,10 C12.04,8.9 11.14,8 10.04,8 Z" id="path-1"></path>
    </defs>
    <g id="Page-1" stroke="none" stroke-width="1" fill="none" fill-rule="evenodd" opacity="0.27">
        <g id="Mobile-Copy-4" transform="translate(-211.000000, -365.000000)">
            <g id="Group-3" transform="translate(12.000000, 350.000000)">
                <g id="Group-2-Copy" transform="translate(15.000000, 11.000000)">
                    <g id="icons/camera-slr" transform="translate(183.000000, 3.000000)">
                        <g id="icons/dark/camera-slr" transform="translate(1.000000, 1.000000)">
                            <mask id="mask-2" fill="white">
                                <use xlink:href="#path-1"></use>
                            </mask>
                            <use id="Mask" fill="#212B36" fill-rule="nonzero" xlink:href="#path-1"></use>
                            <g id="color/main" mask="url(#mask-2)" fill="#212B36">
                                <g transform="translate(-1.000000, -1.000000)">
                                    <rect x="0" y="0" width="18" height="18" rx="4"></rect>
                                </g>
                            </g>
                        </g>
                    </g>
                </g>
            </g>
        </g>
    </g>
</svg>
