<?xml version="1.0" encoding="UTF-8"?>
<svg width="47px" height="47px" viewBox="0 0 47 47" version="1.1" xmlns="http://www.w3.org/2000/svg" xmlns:xlink="http://www.w3.org/1999/xlink">
    <!-- Generator: Sketch 50.2 (55047) - http://www.bohemiancoding.com/sketch -->
    <title>icon</title>
    <desc>Created with Sketch.</desc>
    <defs></defs>
    <g id="Page-1" stroke="none" stroke-width="1" fill="none" fill-rule="evenodd">
        <g id="Mobile" transform="translate(-139.000000, -121.000000)">
            <g id="icon" transform="translate(140.000000, 122.000000)">
                <path d="M20.5,24.5 C14.977,24.5 10.5,18.023 10.5,12.5 L10.5,10.5 C10.5,4.977 14.977,0.5 20.5,0.5 C26.023,0.5 30.5,4.977 30.5,10.5 L30.5,12.5 C30.5,18.023 26.023,24.5 20.5,24.5 Z" id="Fill-1" fill-opacity="0" fill="#000000"></path>
                <path d="M20.5,24.5 C14.977,24.5 10.5,18.023 10.5,12.5 L10.5,10.5 C10.5,4.977 14.977,0.5 20.5,0.5 C26.023,0.5 30.5,4.977 30.5,10.5 L30.5,12.5 C30.5,18.023 26.023,24.5 20.5,24.5 Z" id="Stroke-3" stroke="#FFFFFF" stroke-width="2" stroke-linecap="square"></path>
                <path d="M28.321,30.071 C25.975,29.727 23.351,29.5 20.5,29.5 C14.212,29.5 9.023,30.598 5.507,31.644 C2.534,32.528 0.5,35.255 0.5,38.355999 L0.5,42.5 L22.5,42.5" id="Fill-4" fill-opacity="0" fill="#000000"></path>
                <path d="M28.321,30.071 C25.975,29.727 23.351,29.5 20.5,29.5 C14.212,29.5 9.023,30.598 5.507,31.644 C2.534,32.528 0.5,35.255 0.5,38.356 L0.5,42.5 L22.5,42.5" id="Stroke-5" stroke="#FFFFFF" stroke-width="2"></path>
                <path d="M41.86396,29.13604 C45.37868,32.65076 45.37868,38.349242 41.86396,41.863961 C38.34924,45.3786797 32.65076,45.3786797 29.13604,41.863961 C25.62132,38.349242 25.62132,32.65076 29.13604,29.13604 C32.65076,25.62132 38.34924,25.62132 41.86396,29.13604" id="Fill-6" fill-opacity="0" fill="#000000"></path>
                <path d="M41.86396,29.13604 C45.37868,32.65076 45.37868,38.34924 41.86396,41.86396 C38.34924,45.37868 32.65076,45.37868 29.13604,41.86396 C25.62132,38.34924 25.62132,32.65076 29.13604,29.13604 C32.65076,25.62132 38.34924,25.62132 41.86396,29.13604" id="Stroke-7" stroke="#FFFFFF" stroke-width="2" stroke-linecap="square"></path>
                <path d="M35.5,32.5 L35.5,38.5" id="Fill-8" fill-opacity="0" fill="#000000"></path>
                <path d="M35.5,32.5 L35.5,38.5" id="Stroke-9" stroke="#FFFFFF" stroke-width="2" stroke-linecap="square"></path>
                <path d="M32.5,35.5 L38.5,35.5" id="Fill-10" fill-opacity="0" fill="#000000"></path>
                <path d="M32.5,35.5 L38.5,35.5" id="Stroke-11" stroke="#FFFFFF" stroke-width="2" stroke-linecap="square"></path>
            </g>
        </g>
    </g>
</svg>
