<?xml version="1.0" encoding="UTF-8"?>
<svg width="21px" height="18px" viewBox="0 0 21 18" version="1.1" xmlns="http://www.w3.org/2000/svg" xmlns:xlink="http://www.w3.org/1999/xlink">
    <!-- Generator: Sketch 50.2 (55047) - http://www.bohemiancoding.com/sketch -->
    <title>Combined Shape</title>
    <desc>Created with Sketch.</desc>
    <defs></defs>
    <g id="Symbols" stroke="none" stroke-width="1" fill="none" fill-rule="evenodd">
        <g id="Navbar" transform="translate(-56.000000, -26.000000)" fill="#CACFD9">
            <g id="Group-3">
                <g id="Tab-Icons" transform="translate(52.000000, 21.000000)">
                    <g id="Group">
                        <g id="Group-2">
                            <g id="INbox">
                                <path d="M24.2058106,6.79418937 L24.2058106,21.7941894 C24.2058106,22.3464741 23.7580954,22.7941894 23.2058106,22.7941894 L5.20581063,22.7941894 C4.65352588,22.7941894 4.20581063,22.3464741 4.20581063,21.7941894 L4.20581063,6.79418937 C4.20581063,6.24190462 4.65352588,5.79418937 5.20581063,5.79418937 L23.2058106,5.79418937 C23.7580954,5.79418937 24.2058106,6.24190462 24.2058106,6.79418937 Z M19.9156619,9.9132998 L14.4406706,13.8556354 L8.77446172,9.85381927 C8.32334308,9.53521226 7.69935717,9.64263416 7.38075016,10.0937528 C7.06214315,10.5448714 7.16956505,11.1688573 7.62068368,11.4874644 L13.8694003,15.9006824 C14.2179614,16.1468572 14.6843331,16.1447237 15.0306274,15.8953702 L21.0843381,11.5363204 C21.5325229,11.2135994 21.6342313,10.5886568 21.3115103,10.140472 C20.9887893,9.69228724 20.3638467,9.59057878 19.9156619,9.9132998 Z" id="Combined-Shape"></path>
                            </g>
                        </g>
                    </g>
                </g>
            </g>
        </g>
    </g>
</svg>
